<svg xmlns="http://www.w3.org/2000/svg" viewBox="0 0 810 810">
  <style>
    path { fill: #424040; }
    @media (prefers-color-scheme: dark) {
      path { fill: white; }
    }
  </style>
  <path d="M 762.941406 403.445312 L 539.597656 403.445312 L 539.597656 491.476562 L 652.9375 491.476562 C 622.175781 547.9375 562.277344 586.335938 493.578125 586.335938 C 393.585938 586.335938 312.234375 504.988281 312.234375 404.996094 C 312.234375 370.890625 321.699219 338.957031 338.136719 311.683594 L 122.097656 311.683594 C 122.097656 360.296875 161.511719 399.714844 210.128906 399.714844 L 224.257812 399.714844 C 224.222656 401.46875 224.203125 403.230469 224.203125 404.996094 C 224.203125 441.34375 231.332031 476.621094 245.390625 509.863281 C 258.960938 541.941406 278.378906 570.746094 303.101562 595.46875 C 327.824219 620.195312 356.628906 639.613281 388.710938 653.179688 C 421.949219 667.238281 457.230469 674.367188 493.578125 674.367188 C 529.925781 674.367188 565.203125 667.238281 598.445312 653.179688 C 630.523438 639.613281 659.332031 620.195312 684.054688 595.46875 C 708.777344 570.746094 728.195312 541.941406 741.765625 509.863281 C 755.820312 476.621094 762.949219 441.34375 762.949219 404.996094 C 762.949219 404.476562 762.941406 403.964844 762.941406 403.445312 " />
  <path d="M 294.382812 223.652344 L 493.578125 223.652344 C 561.011719 223.652344 619.964844 260.648438 651.207031 315.414062 L 747.6875 315.414062 C 745.871094 310.277344 743.902344 305.175781 741.765625 300.128906 C 728.195312 268.050781 708.777344 239.242188 684.054688 214.519531 C 659.332031 189.796875 630.523438 170.378906 598.445312 156.808594 C 565.203125 142.75 529.925781 135.625 493.578125 135.625 L 38.386719 135.625 C 38.386719 184.238281 77.800781 223.652344 126.417969 223.652344 L 294.382812 223.652344 " />
</svg>
